<?xml version="1.0" encoding="UTF-8"?>
<svg xmlns="http://www.w3.org/2000/svg" xmlns:xlink="http://www.w3.org/1999/xlink" version="1.1" viewBox="88 45 330 360">
  <defs>
    <style>
      .cls-1, .cls-2 {
        fill: none;
      }

      .cls-3 {
        fill: #3bbeef;
      }

      .cls-4 {
        fill: url(#Dégradé_sans_nom_4);
      }

      .cls-5 {
        fill: url(#Dégradé_sans_nom_3);
      }

      .cls-2 {
        stroke-width: 6.38px;
      }

      .cls-2, .cls-6, .cls-7, .cls-8 {
        stroke: #fff;
        stroke-miterlimit: 10;
      }

      .cls-9 {
        fill: #1b3f7f;
      }

      .cls-10 {
        fill: #fff;
      }

      .cls-6 {
        fill: url(#Dégradé_sans_nom_10-3);
      }

      .cls-6, .cls-7, .cls-8 {
        stroke-width: 3.23px;
      }

      .cls-7 {
        fill: url(#Dégradé_sans_nom_10-2);
      }

      .cls-11 {
        fill: #fafafa;
      }

      .cls-8 {
        fill: url(#Dégradé_sans_nom_10);
      }

      .cls-12 {
        clip-path: url(#clippath);
      }
    </style>
    <linearGradient id="Dégradé_sans_nom_3" data-name="Dégradé sans nom 3" x1="944.94" y1="178.37" x2="901.71" y2="206.63" gradientUnits="userSpaceOnUse">
      <stop offset=".26" stop-color="#ef798a"/>
      <stop offset=".4" stop-color="#e83e60"/>
      <stop offset=".48" stop-color="#e6224d"/>
      <stop offset=".78" stop-color="#ca1b2b"/>
    </linearGradient>
    <linearGradient id="Dégradé_sans_nom_4" data-name="Dégradé sans nom 4" x1="127.87" y1="347.9" x2="376.68" y2="99.08" gradientUnits="userSpaceOnUse">
      <stop offset=".22" stop-color="#1b3f7f"/>
      <stop offset=".27" stop-color="#1d4c8b"/>
      <stop offset=".4" stop-color="#226aa9"/>
      <stop offset=".53" stop-color="#2681bf"/>
      <stop offset=".66" stop-color="#288ecc"/>
      <stop offset=".77" stop-color="#2993d1"/>
    </linearGradient>
    <clipPath id="clippath">
      <path class="cls-1" d="M391.63,116.54l-57.29-32.44h0s-58.01-32.84-58.01-32.84c-14.93-8.45-33.19-8.45-48.11,0l-115.3,65.28c-15.31,8.67-24.77,24.9-24.77,42.49v128.91c0,17.59,9.47,33.82,24.77,42.49l115.3,65.28c14.92,8.45,33.19,8.45,48.11,0l58.01-32.84h0s57.29-32.43,57.29-32.43c15.31-8.67,24.77-24.9,24.77-42.49v-128.91c0-17.59-9.47-33.83-24.77-42.49Z"/>
    </clipPath>
    <linearGradient id="Dégradé_sans_nom_10" data-name="Dégradé sans nom 10" x1="119.41" y1="131.24" x2="147.59" y2="131.24" gradientUnits="userSpaceOnUse">
      <stop offset="0" stop-color="#ef798a"/>
      <stop offset=".27" stop-color="#e83e60"/>
      <stop offset=".41" stop-color="#e6224d"/>
      <stop offset="1" stop-color="#ca1b2b"/>
    </linearGradient>
    <linearGradient id="Dégradé_sans_nom_10-2" data-name="Dégradé sans nom 10" x1="242.98" y1="337.08" x2="283.27" y2="337.08" xlink:href="#Dégradé_sans_nom_10"/>
    <linearGradient id="Dégradé_sans_nom_10-3" data-name="Dégradé sans nom 10" x1="308.91" y1="136.24" x2="341.45" y2="136.24" xlink:href="#Dégradé_sans_nom_10"/>
  </defs>
  <!-- Generator: Adobe Illustrator 28.7.1, SVG Export Plug-In . SVG Version: 1.2.0 Build 142)  -->
  <g>
    <g id="Calque_1">
      <g>
        <g>
          <path class="cls-9" d="M769.36,176.65c-9.32,0-16.96,1.6-22.89,4.81-5.94,3.21-10.53,8.99-13.75,17.33-3.23,8.35-4.84,20.06-4.84,35.13,0,12.46.99,22.62,2.96,30.48h0c1.47-1.47,6.83-7.28,8.73-9.32.25-.23.29-.39.91-.34.41.03.51,0,.7.23.05.07.09.15.13.24.28.74-.73,2.68-1.54,4.46-.43.94-1.78,3.22-2.5,4.54-.72,1.33-1.58,2.7-2.59,4.11-.6.85-1.23,1.63-1.88,2.35,3.11,8.05,7.51,13.54,13.2,16.47,5.84,3,13.52,4.5,23.05,4.5,12.65,0,23.23-1.09,31.74-3.26,2.39-.61,4.06-2.75,4.06-5.21v-13.37c-7.99,1.02-18.23,1.53-30.73,1.53-6.45,0-11.32-1.02-14.6-3.05-3.28-2.04-5.58-5.65-6.91-10.84-1.33-5.19-2-12.98-2-23.37s.74-18.35,2.23-23.6c1.48-5.24,3.87-8.81,7.15-10.69,3.28-1.88,7.99-2.83,14.14-2.83s12.04.25,17.67.76c5.63.51,9.99,1.12,13.06,1.83v-13.55c0-2.43-1.63-4.55-3.98-5.19-3.5-.95-7.45-1.8-11.85-2.57-6.15-1.07-12.7-1.6-19.67-1.6Z"/>
          <path class="cls-9" d="M825.83,183.75c-5.07,4.02-7.61,10.61-7.61,19.78v78.03c0,5.07,4.11,9.18,9.18,9.18h13.56v-43.37l37-1c4.46-.12,8.02-3.77,8.02-8.24v-9.85l-45.02-1.22v-19.4c0-2.65.82-4.81,2.46-6.49,1.64-1.68,3.99-2.52,7.07-2.52h42.87v-18.94c-12.4-1.32-28.79-1.98-49.17-1.98-7.17,0-13.29,2.01-18.36,6.03Z"/>
          <path class="cls-9" d="M648.81,280.47c3.45-10.9,7.58-21.33,12.41-31.29,4.83-9.96,10.19-19.56,16.08-28.82,1.32-2.18,2.41-4.51,3.29-6.98.88-2.48,1.35-4.86,1.41-7.16.06-2.3-.36-4.38-1.27-6.23-.91-1.86-2.49-3.28-4.75-4.29-1.44-.59-2.92-.88-4.42-.88-2.2.06-4.47.59-6.82,1.59-2.35,1-4.62,2.21-6.82,3.62-2.19,1.41-4.28,2.9-6.25,4.46-1.97,1.56-3.68,2.96-5.13,4.2-4.32,3.77-8.43,7.63-12.32,11.58-3.89,3.95-7.68,7.99-11.38,12.11.75-1.83,1.52-3.7,2.3-5.61.78-1.91,1.42-3.83,1.93-5.75.5-1.91.78-3.8.85-5.66.06-1.86-.22-3.64-.85-5.35-.63-1.59-1.51-2.65-2.63-3.18-1.13-.53-2.38-.71-3.76-.53-1.38.18-2.82.63-4.33,1.37-1.5.74-2.95,1.56-4.32,2.47-1.38.91-2.67,1.86-3.85,2.83-1.19.97-2.13,1.78-2.82,2.43-4.14,4.01-7.93,8.01-11.38,12.02-3.45,4.01-6.77,8.1-9.97,12.29,2.69-5.36,5.52-10.59,8.46-15.69,2.95-5.1,6.11-10.06,9.5-14.89.81-1.59,1.08-3.05.8-4.38-.28-1.33-.88-2.52-1.79-3.58-.91-1.06-2.01-2.02-3.29-2.87-1.29-.85-2.52-1.64-3.71-2.34-.38-.29-.8-.38-1.27-.26-.47.12-.86.38-1.18.8-5.89,9.55-11,19.26-15.32,29.13-4.33,9.87-8.15,19.82-11.47,29.83-1.13,3.36-2.21,6.76-3.24,10.21-1.03,3.45-1.93,6.94-2.68,10.47-.19.83-.27,1.68-.24,2.56.03.88.27,1.75.71,2.61.44.86,1.13,1.68,2.07,2.47.94.8,2.22,1.52,3.85,2.17.5.23,1.05.21,1.65-.09.59-.3,1.05-.8,1.36-1.5,1.75-4.54,3.59-8.8,5.5-12.77,1.91-3.98,3.76-7.63,5.55-10.96,1.79-3.33,3.51-6.3,5.17-8.93,1.66-2.62,3.15-4.82,4.47-6.58,1.75-2.42,3.71-4.91,5.88-7.47,2.16-2.56,4.31-5.02,6.44-7.38,2.13-2.36,4.18-4.52,6.16-6.5,1.97-1.97,3.68-3.55,5.12-4.73,1.44-1.18,2.55-1.86,3.34-2.03.78-.18,1.02.3.7,1.41-.94,3.12-2.82,8.4-5.64,15.82-2.82,7.43-6.55,16.97-11.19,28.64-.44,1-.75,2.34-.94,4.02-.19,1.68-.16,3.37.09,5.08.25,1.71.74,3.26,1.46,4.64.72,1.39,1.8,2.31,3.24,2.78.31.12.59.04.85-.22.25-.26.47-.57.66-.93.63-1.18,1.32-2.53,2.07-4.07.75-1.53,1.68-3.31,2.77-5.35,1.1-2.03,2.4-4.35,3.9-6.94,1.5-2.59,3.32-5.54,5.45-8.84,1.38-2.18,3.07-4.61,5.08-7.29,2.01-2.68,4.09-5.33,6.25-7.96,2.16-2.62,4.31-5.11,6.44-7.47,2.13-2.36,4.01-4.3,5.64-5.83,3.32-3.01,6.66-6.07,10.01-9.19,3.35-3.12,6.78-5.92,10.3-8.4.5-.35,1.05-.69,1.65-1.02.59-.32,1.14-.59,1.65-.8.5-.21.89-.32,1.17-.35.28-.03.33.13.14.49-2.44,4.77-4.97,9.96-7.57,15.56-2.6,5.6-5.11,11.27-7.52,17.02-2.41,5.75-4.64,11.45-6.67,17.1-2.04,5.66-3.71,10.93-5.03,15.82-1.07,3.71-2.01,7.4-2.82,11.05-.82,3.65-1.5,7.39-2.07,11.23-.19,1.06-.17,2.12.05,3.18.22,1.06.61,2.05,1.17,2.96.56.91,1.28,1.68,2.16,2.3.88.62,1.88.99,3.01,1.11.62,0,1-.3,1.13-.88.56-3.6,1.32-7.15,2.26-10.65.94-3.51,1.97-7.03,3.1-10.56Z"/>
          <path class="cls-9" d="M730.84,264.4c-1.66,1.68-3.39,3.29-5.22,4.81-1.91,1.59-4.06,3.05-6.44,4.38-2.38,1.33-5.14,2.49-8.27,3.49.81-1.59,1.72-3.36,2.73-5.3,1-1.94,1.99-3.96,2.96-6.05.97-2.09,1.91-4.14,2.82-6.14.91-2,1.71-3.83,2.4-5.48,1-2.83,1.07-5.42.19-7.78-.19-.53-.45-1.03-.8-1.5-.35-.47-.86-.93-1.55-1.37-.69-.44-1.61-.87-2.77-1.28-1.16-.41-2.62-.85-4.37-1.33-.5-.12-.96-.03-1.36.27-.41.3-.71.74-.89,1.33-.5,2.06-1.33,4.2-2.49,6.41-1.16,2.21-2.48,4.38-3.95,6.5-1.47,2.12-3.03,4.14-4.65,6.05-1.63,1.92-3.2,3.64-4.7,5.17-2.57,2.59-5.2,4.98-7.9,7.16-.25.24-.97.8-2.16,1.68-1.19.88-2.46,1.74-3.81,2.56-1.35.83-2.59,1.47-3.71,1.94-1.13.47-1.79.38-1.97-.27-.5-1-.22-2.92.85-5.75,1.07-2.83,3.01-6.45,5.83-10.87.94-1.47,1.88-2.92,2.82-4.33.94-1.41,1.94-2.8,3.01-4.15,1.13-1.65,1.6-3.36,1.41-5.13-.19-1.77-1-3.24-2.44-4.42l-3.48-2.65c-.31-.23-.71-.29-1.18-.18-.47.12-.86.38-1.17.8-2.32,3.06-4.42,6.19-6.3,9.37-1.88,3.18-3.6,6.42-5.17,9.72-1.19,2.83-2.19,5.48-3.01,7.96-.81,2.47-1.22,5.13-1.22,7.96.06,1.83.5,3.42,1.32,4.77.82,1.36,1.87,2.4,3.15,3.14,1.29.74,2.77,1.15,4.47,1.24,1.69.09,3.45-.25,5.26-1.02,4.7-2.36,8.68-4.88,11.94-7.56,3.26-2.68,6.27-5.64,9.03-8.88-1.07,2.48-2.18,4.89-3.34,7.25-1.16,2.36-2.37,4.74-3.62,7.16-4.45,2.36-8.84,4.74-13.16,7.16-4.32,2.42-8.65,5.04-12.97,7.87-3.45,2.3-6.55,4.57-9.31,6.81-2.76,2.24-5.17,4.68-7.24,7.34-1.07,1.3-2.02,2.77-2.87,4.42-.85,1.65-1.47,3.34-1.88,5.08-.41,1.74-.52,3.48-.33,5.22.19,1.74.82,3.31,1.88,4.73,1.07,1.53,2.49,2.59,4.28,3.18,1.79.59,3.59.82,5.41.71,2.51-.18,4.97-.81,7.38-1.9,2.41-1.09,4.75-2.47,7-4.15,2.26-1.68,4.42-3.57,6.49-5.66,2.07-2.09,4.03-4.24,5.88-6.45,1.85-2.21,3.56-4.36,5.13-6.45,1.57-2.09,2.95-3.96,4.14-5.61,1.38-1.94,2.63-3.71,3.76-5.3,1.13-1.59,2.21-3.17,3.24-4.73,1.03-1.56,2.05-3.17,3.06-4.82,1-1.65,2.1-3.51,3.29-5.57,3.39-.94,6.31-1.91,8.79-2.92,2.48-1,4.65-2.06,6.53-3.18,1.88-1.12,3.6-2.31,5.17-3.58,1.57-1.27,3.16-2.67,4.79-4.2.45-.42.89-.88,1.32-1.36-.08-.21-.17-.42-.25-.64-.64-1.72-1.21-3.61-1.72-5.64ZM680.11,305.67c-2.48,3.62-5.12,7.12-7.94,10.47-1.51,1.89-3.01,3.58-4.51,5.08-1.5,1.5-3.1,2.93-4.8,4.29-.69.53-1.52,1.06-2.49,1.59-.97.53-1.89.96-2.77,1.28-.88.32-1.68.46-2.4.4-.72-.06-1.18-.38-1.36-.97-.31-1.71-.11-3.45.61-5.22.72-1.77,1.66-3.46,2.82-5.08,1.16-1.62,2.46-3.12,3.9-4.51,1.44-1.39,2.76-2.58,3.95-3.58,3.38-2.77,6.94-5.38,10.67-7.82,3.73-2.45,7.54-4.82,11.42-7.12-2.26,3.83-4.62,7.56-7.1,11.18Z"/>
          <g>
            <path class="cls-9" d="M715.12,307.48c3.95,0,5.84,1.5,5.84,4.32,0,1.76-1.15,3.38-2.8,3.78,2.13.39,3.33,1.81,3.33,3.97,0,2.45-1.49,4.85-5.83,4.85h-5.71v-16.92h5.17ZM712.06,314.66h3.43c2.38,0,3.36-1.2,3.36-2.87,0-1.5-.76-2.43-3.73-2.43h-3.06v5.3ZM712.06,322.48h3.6c2.55,0,3.73-1.1,3.73-2.94,0-2.04-1.32-2.97-4.12-2.97h-3.21v5.91Z"/>
            <path class="cls-9" d="M734.76,324.52l-4.81-12.38h2.11l3.65,9.51,3.21-9.51h2.08l-4.32,12.65c-1.01,2.94-1.67,4.27-5.1,4.27v-1.91c1.62,0,2.38-.27,3.11-2.45l.05-.17Z"/>
            <path class="cls-9" d="M773.48,312.75c-.59-2.65-1.94-3.55-4.02-3.55-2.6,0-4.02,1.62-4.02,5.81v1.86c0,4.19,1.42,5.81,4.02,5.81,2.21,0,3.46-1.08,4.02-3.56h2.04c-.54,3.8-2.84,5.47-6.06,5.47-3.75,0-6.13-2.26-6.13-7.72v-1.86c0-5.47,2.38-7.72,6.13-7.72,3.33,0,5.54,1.77,6.08,5.47h-2.06Z"/>
            <path class="cls-9" d="M795.92,307.48v1.91h-8.09v5.69h7.36v1.91h-7.36v7.4h-2.11v-16.92h10.2Z"/>
            <path class="cls-9" d="M808.45,324.4h-2.11v-16.92h2.11v16.92Z"/>
            <path class="cls-9" d="M844.15,307.48v1.91h-5.15v15h-2.11v-15h-5.15v-1.91h12.41Z"/>
            <path class="cls-9" d="M860.68,322.53c-.86,1.5-2.16,2.06-4.29,2.06-3.29,0-5.25-2.13-5.25-5.54v-1.62c0-3.48,1.64-5.49,4.85-5.49s4.85,1.99,4.85,5.49v1.27h-7.75v.34c0,2.11,1.01,3.78,3.14,3.78,1.59,0,2.4-.47,2.92-1.37l1.52,1.08ZM853.1,316.99h5.76c-.1-2.06-1.01-3.28-2.87-3.28s-2.77,1.25-2.89,3.28Z"/>
            <path class="cls-9" d="M880,322.53c-.76,1.42-2.26,2.06-4.24,2.06-3.36,0-5.3-2.16-5.3-5.54v-1.62c0-3.48,1.99-5.49,5.3-5.49,1.84,0,3.36.66,4.24,1.91l-1.54,1.08c-.54-.78-1.57-1.23-2.7-1.23-2.11,0-3.33,1.42-3.33,3.73v1.62c0,2.11.98,3.78,3.33,3.78,1.15,0,2.21-.39,2.72-1.37l1.52,1.08Z"/>
            <path class="cls-9" d="M889.32,307.48h1.96v5.86c.61-.93,1.47-1.4,3.29-1.4,2.62,0,4.46,1.37,4.46,4.81v7.65h-1.96v-7.62c0-2.48-1.35-3.02-2.8-3.02-1.84,0-2.99,1.3-2.99,2.99v7.65h-1.96v-16.92Z"/>
            <path class="cls-9" d="M909.57,312.14h1.96v1.2c.61-.93,1.47-1.4,3.29-1.4,2.62,0,4.46,1.37,4.46,4.81v7.65h-1.96v-7.62c0-2.48-1.35-3.02-2.8-3.02-1.84,0-2.99,1.3-2.99,2.99v7.65h-1.96v-12.26Z"/>
            <path class="cls-9" d="M939.41,319.05c0,3.19-1.57,5.54-5.1,5.54-3.26,0-5.1-2.16-5.1-5.54v-1.62c0-3.48,1.89-5.49,5.1-5.49s5.1,1.99,5.1,5.49v1.62ZM937.45,319.05v-1.62c0-2.33-1.13-3.73-3.14-3.73s-3.14,1.42-3.14,3.73v1.62c0,2.11.88,3.78,3.14,3.78,2.08,0,3.14-1.69,3.14-3.78Z"/>
            <path class="cls-9" d="M949.34,307.48h1.96v12.65c0,1.32.07,2.45,2.08,2.45v1.81c-3.09,0-4.05-1.23-4.05-3.78v-13.14Z"/>
            <path class="cls-9" d="M973,319.05c0,3.19-1.57,5.54-5.1,5.54-3.26,0-5.1-2.16-5.1-5.54v-1.62c0-3.48,1.89-5.49,5.1-5.49s5.1,1.99,5.1,5.49v1.62ZM971.04,319.05v-1.62c0-2.33-1.13-3.73-3.14-3.73s-3.14,1.42-3.14,3.73v1.62c0,2.11.88,3.78,3.14,3.78,2.08,0,3.14-1.69,3.14-3.78Z"/>
            <path class="cls-9" d="M990.56,312.14h1.96v12.01c0,3.41-1.96,5.05-5.25,5.05-2.13,0-3.43-.56-4.29-2.06l1.52-1.08c.52.91,1.32,1.37,2.92,1.37,2.13,0,3.14-1.18,3.14-3.29v-.83c-.66.86-1.72,1.27-3.33,1.27-3.33,0-4.9-2.35-4.9-5.54v-1.62c0-3.51,1.86-5.49,4.9-5.49,1.62,0,2.67.52,3.33,1.42v-1.23ZM990.56,319.05v-1.62c0-2.31-1.13-3.73-3.14-3.73s-3.14,1.4-3.14,3.73v1.62c0,2.08,1.05,3.78,3.14,3.78,2.26,0,3.14-1.67,3.14-3.78Z"/>
            <path class="cls-9" d="M1003.31,307.48h2.21v2.21h-2.21v-2.21ZM1003.43,312.14h1.96v12.26h-1.96v-12.26Z"/>
            <path class="cls-9" d="M1025.23,322.53c-.86,1.5-2.16,2.06-4.29,2.06-3.29,0-5.25-2.13-5.25-5.54v-1.62c0-3.48,1.64-5.49,4.85-5.49s4.85,1.99,4.85,5.49v1.27h-7.75v.34c0,2.11,1.01,3.78,3.14,3.78,1.59,0,2.4-.47,2.92-1.37l1.52,1.08ZM1017.65,316.99h5.76c-.1-2.06-1.01-3.28-2.87-3.28s-2.77,1.25-2.89,3.28Z"/>
            <path class="cls-9" d="M1042.52,315.01c-.66-.86-1.35-1.25-3.04-1.25-1.45,0-2.38.56-2.38,1.64,0,1.4,1.23,1.81,2.84,1.94,2.3.17,4.41.83,4.41,3.65,0,2.13-1.45,3.6-4.61,3.6-2.5,0-3.8-.76-4.73-2.04l1.45-1.03c.66.88,1.54,1.25,3.31,1.25,1.64,0,2.62-.64,2.62-1.74,0-1.32-.78-1.79-3.16-1.96-2.06-.15-4.09-.98-4.09-3.65,0-2.03,1.47-3.48,4.39-3.48,1.99,0,3.51.52,4.46,2.04l-1.47,1.03Z"/>
          </g>
          <path class="cls-3" d="M1044.36,290.73h-23.42s-7.09-23.88-7.09-23.88h-38.82s-7.24,23.88-7.24,23.88h-12.5c-5.56,0-9.53-5.4-7.87-10.71l30.57-97.52c1.08-3.44,4.26-5.78,7.87-5.78h22.75s35.74,114,35.74,114ZM1008.46,246.36l-14.02-50.07-14.02,50.07h28.04Z"/>
          <path class="cls-3" d="M938.77,219.21v71.53h-14.18c-4.7,0-8.51-3.69-8.51-8.24v-63.28c0-4.55,3.69-8.24,8.24-8.24,0,0-1.81.02,5.94,0,7.21-.02,8.53,0,8.53,0l-.02,8.24Z"/>
        </g>
        <circle class="cls-5" cx="927.43" cy="189.81" r="14.41"/>
      </g>
      <g>
        <g>
          <path class="cls-4" d="M391.63,116.54l-57.29-32.44h0s-58.01-32.84-58.01-32.84c-14.93-8.45-33.19-8.45-48.11,0l-115.3,65.28c-15.31,8.67-24.77,24.9-24.77,42.49v128.91c0,17.59,9.47,33.82,24.77,42.49l115.3,65.28c14.92,8.45,33.19,8.45,48.11,0l58.01-32.84h0s57.29-32.43,57.29-32.43c15.31-8.67,24.77-24.9,24.77-42.49v-128.91c0-17.59-9.47-33.83-24.77-42.49Z"/>
          <g class="cls-12">
            <g>
              <line class="cls-2" x1="353.36" y1="221.66" x2="385.74" y2="309.54"/>
              <line class="cls-2" x1="385.74" y1="309.54" x2="381.53" y2="428.08"/>
              <line class="cls-2" x1="497.91" y1="281.37" x2="385.74" y2="309.54"/>
              <line class="cls-2" x1="385.74" y1="309.54" x2="263.12" y2="337.08"/>
              <line class="cls-2" x1="249.04" y1="341.34" x2="161.68" y2="372.33"/>
              <polyline class="cls-2" points="215.98 181.3 133.5 131.24 62.55 90.99 6.64 212.67 6.64 341.34 153.63 262.01 6.64 212.67 133.5 131.24 161.68 12.42 256.23 90.99 215.98 181.3 325.18 136.24 443.69 76.9 497.91 171.49"/>
              <polyline class="cls-2" points="161.68 12.42 339.27 4.88 256.23 90.99 133.5 131.24 153.63 262.01 147.59 372.33 6.64 341.34"/>
              <polyline class="cls-2" points="443.69 76.9 339.27 4.88 325.18 136.24 256.23 90.99"/>
              <path class="cls-2" d="M325.18,136.24c14.09,0,172.73,35.25,172.73,35.25"/>
              <line class="cls-2" x1="62.55" y1="90.99" x2="161.68" y2="12.42"/>
              <line class="cls-2" x1="153.63" y1="262.01" x2="215.98" y2="181.3"/>
              <polyline class="cls-2" points="497.91 171.49 353.36 221.66 325.18 136.24 263.12 337.08 153.63 262.01"/>
              <polyline class="cls-2" points="215.98 181.3 263.12 337.08 353.36 221.66"/>
              <line class="cls-2" x1="497.91" y1="171.49" x2="497.91" y2="281.37"/>
              <line class="cls-2" x1="263.12" y1="337.08" x2="284.67" y2="408.84"/>
              <g>
                <circle class="cls-8" cx="133.5" cy="131.24" r="14.09"/>
                <path class="cls-10" d="M267.5,90.99c0,6.22-5.05,11.27-11.27,11.27s-11.27-5.05-11.27-11.27,5.05-11.27,11.27-11.27,11.27,5.05,11.27,11.27Z"/>
                <circle class="cls-10" cx="353.36" cy="221.66" r="16.91"/>
                <path class="cls-7" d="M283.27,337.08c0,11.13-9.02,20.15-20.15,20.15s-20.15-9.02-20.15-20.15,9.02-20.15,20.15-20.15,20.15,9.02,20.15,20.15Z"/>
                <circle class="cls-6" cx="325.18" cy="136.24" r="16.27"/>
                <circle class="cls-10" cx="153.63" cy="262.01" r="14.09"/>
                <path class="cls-10" d="M234.3,181.3c0,10.11-8.2,18.31-18.31,18.31s-18.31-8.2-18.31-18.31,8.2-18.31,18.31-18.31,18.31,8.2,18.31,18.31Z"/>
                <path class="cls-11" d="M395.6,309.54c0,5.45-4.42,9.86-9.86,9.86s-9.86-4.42-9.86-9.86,4.42-9.86,9.86-9.86,9.86,4.42,9.86,9.86Z"/>
              </g>
            </g>
          </g>
        </g>
        <circle class="cls-10" cx="218.46" cy="179.84" r="23.42"/>
      </g>
    </g>
  </g>
</svg>