<svg xmlns="http://www.w3.org/2000/svg" xmlns:xlink="http://www.w3.org/1999/xlink" width="191.632" height="65" viewBox="0 0 191.632 65">
    <defs>
        <clipPath id="clip-path">
            <rect id="Rectangle_140" width="191.632" height="65" fill="none"/>
        </clipPath>
    </defs>
    <g id="Groupe_38" clip-path="url(#clip-path)">
        <path id="Tracé_40" d="M240.2,1.638a19.341,19.341,0,0,0-9.232,1.94q-3.594,1.94-5.546,6.99t-1.952,14.165a51.9,51.9,0,0,0,1.195,12.29h0c.591-.594,2.753-2.937,3.521-3.759a.347.347,0,0,1,.368-.138c.163.011.207,0,.284.095a.5.5,0,0,1,.051.1c.112.3-.293,1.081-.622,1.8-.174.38-.719,1.3-1.009,1.832a16.674,16.674,0,0,1-1.043,1.658,10.686,10.686,0,0,1-.758.948q1.882,4.868,5.322,6.641a20.37,20.37,0,0,0,9.294,1.817,52.7,52.7,0,0,0,12.8-1.314,2.17,2.17,0,0,0,1.638-2.1V39.206a101.408,101.408,0,0,1-12.392.616,11.3,11.3,0,0,1-5.887-1.231,6.854,6.854,0,0,1-2.788-4.373,40.829,40.829,0,0,1-.806-9.422,37.462,37.462,0,0,1,.9-9.515,6.8,6.8,0,0,1,2.881-4.311,11.6,11.6,0,0,1,5.7-1.139q3.717,0,7.126.308a41.359,41.359,0,0,1,5.267.739V5.412a2.167,2.167,0,0,0-1.605-2.092q-2.119-.572-4.777-1.035a46.26,46.26,0,0,0-7.931-.647" transform="translate(-155.201 -1.138)" fill="#fff"/>
        <path id="Tracé_41" d="M345.793,5.482q-3.067,2.433-3.067,7.975V44.922a3.7,3.7,0,0,0,3.7,3.7H351.9V31.132l14.921-.4a3.324,3.324,0,0,0,3.234-3.323V23.434L351.9,22.942V15.12a3.59,3.59,0,0,1,.991-2.617,3.8,3.8,0,0,1,2.85-1.016h17.288V3.85a195.346,195.346,0,0,0-19.829-.8,11.549,11.549,0,0,0-7.4,2.433" transform="translate(-238.028 -2.118)" fill="#fff"/>
        <path id="Tracé_42" d="M36.382,60.167a93.513,93.513,0,0,1,5-12.618,114.966,114.966,0,0,1,6.484-11.62A15.39,15.39,0,0,0,49.2,33.113a9.417,9.417,0,0,0,.569-2.887,5.3,5.3,0,0,0-.512-2.513,3.69,3.69,0,0,0-1.914-1.729,4.677,4.677,0,0,0-1.782-.357,7.521,7.521,0,0,0-2.748.642A18.36,18.36,0,0,0,40.06,27.73q-1.327.856-2.521,1.8t-2.067,1.693q-2.616,2.282-4.967,4.67t-4.588,4.883q.455-1.1.929-2.264a18.61,18.61,0,0,0,.777-2.317,10.387,10.387,0,0,0,.341-2.281,5.675,5.675,0,0,0-.341-2.156,2.223,2.223,0,0,0-1.062-1.283,2.69,2.69,0,0,0-1.516-.214,5.608,5.608,0,0,0-1.744.552,15.555,15.555,0,0,0-1.744,1q-.834.553-1.555,1.141t-1.138.98q-2.5,2.424-4.588,4.848t-4.019,4.955q1.63-3.243,3.413-6.327T17.5,31.4a2.645,2.645,0,0,0,.323-1.764,3.222,3.222,0,0,0-.721-1.444,6.384,6.384,0,0,0-1.327-1.158q-.778-.516-1.5-.945a.566.566,0,0,0-.512-.107.846.846,0,0,0-.474.321,94.77,94.77,0,0,0-6.18,11.745Q4.5,44.02,2.487,50.079,1.8,52.111,1.179,54.2T.1,58.42A3.976,3.976,0,0,0,0,59.454a2.464,2.464,0,0,0,.284,1.051,3.315,3.315,0,0,0,.834,1,5.632,5.632,0,0,0,1.554.873.736.736,0,0,0,.664-.035,1.178,1.178,0,0,0,.55-.606q1.061-2.744,2.218-5.151t2.237-4.42q1.081-2.013,2.085-3.6t1.8-2.656q1.061-1.461,2.37-3.012t2.6-2.976q1.289-1.425,2.484-2.62t2.066-1.907a3.861,3.861,0,0,1,1.347-.82q.473-.107.284.57-.568,1.89-2.275,6.38T16.591,53.073a5.722,5.722,0,0,0-.379,1.622,7.949,7.949,0,0,0,.038,2.05,5.85,5.85,0,0,0,.588,1.871,2.2,2.2,0,0,0,1.308,1.123.3.3,0,0,0,.342-.089,1.733,1.733,0,0,0,.265-.374q.378-.713.834-1.64T20.7,55.48q.663-1.23,1.574-2.8t2.2-3.564q.834-1.318,2.047-2.941t2.521-3.208q1.308-1.585,2.6-3.012T33.918,37.6q2.009-1.818,4.038-3.707a39.426,39.426,0,0,1,4.152-3.386,6.721,6.721,0,0,1,.664-.41,6.986,6.986,0,0,1,.663-.321,1.89,1.89,0,0,1,.474-.142q.171-.018.057.2-1.479,2.887-3.052,6.273T37.88,42.968q-1.46,3.475-2.692,6.9t-2.029,6.38q-.645,2.246-1.137,4.456t-.834,4.527a3.365,3.365,0,0,0,.019,1.283,3.666,3.666,0,0,0,.474,1.194,3.143,3.143,0,0,0,.872.927,2.531,2.531,0,0,0,1.213.446.417.417,0,0,0,.455-.357,41.208,41.208,0,0,1,.91-4.3q.568-2.121,1.251-4.259" transform="translate(0 -17.798)" fill="#fff"/>
        <path id="Tracé_43" d="M148.855,95.825q-1,1.018-2.106,1.941a16.914,16.914,0,0,1-2.6,1.764,18.329,18.329,0,0,1-3.337,1.408q.493-.962,1.1-2.139t1.194-2.441q.587-1.265,1.137-2.478t.967-2.21a4.489,4.489,0,0,0,.076-3.137,2.363,2.363,0,0,0-.322-.606,2.31,2.31,0,0,0-.626-.553,5.582,5.582,0,0,0-1.118-.517q-.7-.249-1.763-.535a.645.645,0,0,0-.55.107,1.014,1.014,0,0,0-.36.535,11.384,11.384,0,0,1-1,2.584,25.006,25.006,0,0,1-1.592,2.62q-.892,1.283-1.877,2.441t-1.9,2.085A39.246,39.246,0,0,1,131,99.584q-.152.143-.872.677t-1.535,1.034a11.138,11.138,0,0,1-1.5.784q-.682.286-.8-.107a3.393,3.393,0,0,1,.342-2.317,25.291,25.291,0,0,1,2.351-4.384q.568-.891,1.137-1.746t1.213-1.675a3.015,3.015,0,0,0,.569-2.068A2.586,2.586,0,0,0,130.92,88l-1.4-1.069a.538.538,0,0,0-.474-.071.846.846,0,0,0-.474.321,39.9,39.9,0,0,0-2.54,3.778q-1.138,1.925-2.085,3.921-.719,1.711-1.213,3.208a10.2,10.2,0,0,0-.493,3.208,3.943,3.943,0,0,0,.531,1.925,3.51,3.51,0,0,0,1.27,1.265,3.985,3.985,0,0,0,1.8.5,4.792,4.792,0,0,0,2.123-.41,25.679,25.679,0,0,0,4.815-3.048,28.853,28.853,0,0,0,3.64-3.582q-.645,1.5-1.346,2.923t-1.46,2.887q-2.692,1.426-5.308,2.887t-5.232,3.172q-2.084,1.39-3.754,2.745a18.345,18.345,0,0,0-2.919,2.958,9.9,9.9,0,0,0-1.156,1.782,8.938,8.938,0,0,0-.758,2.05,6.22,6.22,0,0,0-.133,2.1,3.8,3.8,0,0,0,.759,1.907,3.311,3.311,0,0,0,1.725,1.283,5.733,5.733,0,0,0,2.18.285,8.668,8.668,0,0,0,2.976-.766,15.248,15.248,0,0,0,2.825-1.675,22.98,22.98,0,0,0,2.616-2.281q1.251-1.266,2.369-2.6t2.067-2.6q.947-1.266,1.668-2.264l1.517-2.139q.682-.962,1.308-1.907t1.232-1.942q.606-1,1.327-2.246a33.367,33.367,0,0,0,3.545-1.176,19.307,19.307,0,0,0,2.635-1.283,17.723,17.723,0,0,0,2.086-1.443q.947-.766,1.933-1.693c.182-.171.358-.356.532-.55-.033-.086-.068-.17-.1-.257a21.6,21.6,0,0,1-.7-2.275M128.4,112.469q-1.5,2.192-3.2,4.224a24.6,24.6,0,0,1-1.82,2.05,23.663,23.663,0,0,1-1.934,1.729,7.69,7.69,0,0,1-1,.642,8.481,8.481,0,0,1-1.119.517,2.275,2.275,0,0,1-.967.16.564.564,0,0,1-.55-.392,3.71,3.71,0,0,1,.247-2.1,10.012,10.012,0,0,1,1.137-2.05,13.085,13.085,0,0,1,1.573-1.818q.873-.838,1.593-1.443a50.457,50.457,0,0,1,4.3-3.155q2.255-1.48,4.607-2.869-1.365,2.317-2.863,4.509" transform="translate(-79.394 -59.939)" fill="#fff"/>
        <path id="Tracé_44" d="M196.022,174.338c1.563,0,2.31.592,2.31,1.708a1.521,1.521,0,0,1-1.107,1.495,1.487,1.487,0,0,1,1.32,1.572c0,.97-.592,1.922-2.309,1.922h-2.262v-6.7Zm-1.213,2.844h1.359c.942,0,1.33-.476,1.33-1.136,0-.592-.3-.961-1.475-.961h-1.213Zm0,3.1h1.427c1.009,0,1.475-.437,1.475-1.165,0-.806-.524-1.175-1.63-1.175h-1.272Z" transform="translate(-134.718 -121.08)" fill="#fff"/>
        <path id="Tracé_45" d="M221.8,185.276l-1.9-4.9h.835l1.446,3.765,1.271-3.765h.825l-1.708,5.008c-.4,1.165-.66,1.689-2.019,1.689v-.757c.64,0,.941-.107,1.233-.971Z" transform="translate(-152.724 -125.273)" fill="#fff"/>
        <path id="Tracé_46" d="M267.164,176.248c-.233-1.048-.767-1.407-1.592-1.407-1.029,0-1.592.64-1.592,2.3v.737c0,1.66.563,2.3,1.592,2.3.873,0,1.368-.427,1.592-1.407h.806a2.243,2.243,0,0,1-2.4,2.164c-1.485,0-2.426-.893-2.426-3.057v-.737c0-2.164.941-3.057,2.426-3.057a2.25,2.25,0,0,1,2.407,2.164Z" transform="translate(-182.758 -120.904)" fill="#fff"/>
        <path id="Tracé_47" d="M296.192,174.338v.757h-3.2v2.251H295.9v.757H292.99v2.931h-.835v-6.7Z" transform="translate(-202.905 -121.08)" fill="#fff"/>
        <rect id="Rectangle_139" width="0.835" height="6.697" transform="translate(97.413 53.258)" fill="#fff"/>
        <path id="Tracé_48" d="M356.7,174.338v.757h-2.038v5.94h-.835V175.1h-2.038v-.757Z" transform="translate(-244.325 -121.08)" fill="#fff"/>
        <path id="Tracé_49" d="M380.7,184.312a1.706,1.706,0,0,1-1.7.815,1.975,1.975,0,0,1-2.077-2.193v-.641c0-1.378.65-2.174,1.922-2.174s1.922.786,1.922,2.174v.5H377.7v.136c0,.835.4,1.495,1.242,1.495a1.151,1.151,0,0,0,1.155-.543Zm-3-2.193h2.281c-.039-.815-.4-1.3-1.135-1.3s-1.1.5-1.146,1.3" transform="translate(-261.781 -125.096)" fill="#fff"/>
        <path id="Tracé_50" d="M405.74,184.313a1.744,1.744,0,0,1-1.679.815,1.98,1.98,0,0,1-2.1-2.193v-.641a2.142,2.142,0,0,1,3.776-1.417l-.612.427a1.276,1.276,0,0,0-1.068-.485c-.835,0-1.32.563-1.32,1.475v.641c0,.835.388,1.494,1.32,1.494a1.14,1.14,0,0,0,1.077-.543Z" transform="translate(-279.169 -125.096)" fill="#fff"/>
        <path id="Tracé_51" d="M426.4,174.338h.776v2.32a1.34,1.34,0,0,1,1.3-.553c1.038,0,1.766.544,1.766,1.9v3.028h-.776v-3.018c0-.98-.534-1.194-1.106-1.194a1.131,1.131,0,0,0-1.184,1.184v3.028H426.4Z" transform="translate(-296.139 -121.08)" fill="#fff"/>
        <path id="Tracé_52" d="M452.642,180.2h.776v.476a1.34,1.34,0,0,1,1.3-.554c1.038,0,1.766.544,1.766,1.9v3.028h-.776v-3.018c0-.98-.534-1.194-1.106-1.194a1.131,1.131,0,0,0-1.184,1.184v3.028h-.776Z" transform="translate(-314.366 -125.095)" fill="#fff"/>
        <path id="Tracé_53" d="M482.131,182.935a2.026,2.026,0,1,1-4.037,0v-.641a2.024,2.024,0,1,1,4.037,0Zm-.777,0v-.641c0-.922-.446-1.475-1.242-1.475s-1.242.563-1.242,1.475v.641c0,.835.349,1.495,1.242,1.495.825,0,1.242-.67,1.242-1.495" transform="translate(-332.042 -125.096)" fill="#fff"/>
        <path id="Tracé_54" d="M504.179,174.338h.776v5.008c0,.524.029.971.825.971v.718c-1.223,0-1.6-.485-1.6-1.494Z" transform="translate(-350.159 -121.08)" fill="#fff"/>
        <path id="Tracé_55" d="M525.66,182.935a2.026,2.026,0,1,1-4.037,0v-.641a2.024,2.024,0,1,1,4.037,0Zm-.777,0v-.641c0-.922-.446-1.475-1.242-1.475s-1.242.563-1.242,1.475v.641c0,.835.349,1.495,1.242,1.495.825,0,1.242-.67,1.242-1.495" transform="translate(-362.274 -125.096)" fill="#fff"/>
        <path id="Tracé_56" d="M550.176,180.2h.777v4.756a1.83,1.83,0,0,1-2.077,2,1.706,1.706,0,0,1-1.7-.815l.6-.427a1.15,1.15,0,0,0,1.155.544c.845,0,1.242-.466,1.242-1.3v-.33a1.536,1.536,0,0,1-1.32.5c-1.32,0-1.941-.932-1.941-2.193v-.641c0-1.388.737-2.174,1.941-2.174a1.508,1.508,0,0,1,1.32.563Zm0,2.737v-.641c0-.913-.446-1.475-1.242-1.475s-1.242.553-1.242,1.475v.641c0,.825.418,1.495,1.242,1.495.893,0,1.242-.66,1.242-1.495" transform="translate(-379.839 -125.096)" fill="#fff"/>
        <path id="Tracé_57" d="M574.113,174.338h.873v.873h-.873Zm.048,1.844h.776v4.853h-.776Z" transform="translate(-398.729 -121.08)" fill="#fff"/>
        <path id="Tracé_58" d="M593.934,184.312a1.706,1.706,0,0,1-1.7.815,1.975,1.975,0,0,1-2.077-2.193v-.641c0-1.378.65-2.174,1.922-2.174s1.922.786,1.922,2.174v.5h-3.067v.136c0,.835.4,1.495,1.243,1.495a1.151,1.151,0,0,0,1.155-.543Zm-3-2.193h2.281c-.039-.815-.4-1.3-1.136-1.3s-1.1.5-1.146,1.3" transform="translate(-409.872 -125.096)" fill="#fff"/>
        <path id="Tracé_59" d="M618.165,181.333a1.269,1.269,0,0,0-1.2-.495c-.572,0-.941.223-.941.65,0,.553.485.718,1.126.767.912.068,1.747.33,1.747,1.446,0,.844-.573,1.427-1.825,1.427a2.057,2.057,0,0,1-1.873-.806l.573-.408a1.422,1.422,0,0,0,1.31.495c.65,0,1.039-.252,1.039-.689,0-.524-.311-.708-1.252-.776-.815-.058-1.621-.388-1.621-1.446,0-.806.582-1.378,1.737-1.378a1.884,1.884,0,0,1,1.766.806Z" transform="translate(-427.261 -125.096)" fill="#fff"/>
        <path id="Tracé_60" d="M536.469,47.719h-9.443l-2.858-9.629H508.512l-2.92,9.629H500.55a3.324,3.324,0,0,1-3.172-4.318L509.708,4.075a3.324,3.324,0,0,1,3.172-2.329h9.176ZM521.993,29.827,516.34,9.636l-5.654,20.191Z" transform="translate(-345.329 -1.213)" fill="#fff"/>
        <path id="Tracé_61" d="M465.506,50.255V79.1h-5.719a3.378,3.378,0,0,1-3.431-3.324V50.255a3.324,3.324,0,0,1,3.324-3.324s-.729.008,2.4,0c2.907-.007,3.438,0,3.438,0Z" transform="translate(-316.945 -32.592)" fill="#fff"/>
        <path id="Tracé_62" d="M463.947,5.809A5.809,5.809,0,1,1,458.138,0a5.809,5.809,0,0,1,5.809,5.809" transform="translate(-314.148)" fill="#fff"/>
    </g>
</svg>
