<svg id="Groupe_59" data-name="Groupe 59" xmlns="http://www.w3.org/2000/svg" xmlns:xlink="http://www.w3.org/1999/xlink" width="46.418" height="50.5" viewBox="0 0 46.418 50.5">
    <defs>
        <clipPath id="clip-path">
            <rect id="Rectangle_544" width="46.418" height="50.5" fill="none"/>
        </clipPath>
        <clipPath id="clip-path-2">
            <path id="Tracé_297" d="M78.076,137.814a2.261,2.261,0,1,0,2.261-2.261,2.261,2.261,0,0,0-2.261,2.261" transform="translate(-78.076 -135.553)" fill="none"/>
        </clipPath>
        <linearGradient id="linear-gradient" x1="-4.974" y1="2.532" x2="-4.91" y2="2.532" gradientUnits="objectBoundingBox">
            <stop offset="0" stop-color="#e76178"/>
            <stop offset="0.061" stop-color="#e5506e"/>
            <stop offset="0.3" stop-color="#de164a"/>
            <stop offset="0.414" stop-color="#dc003c"/>
            <stop offset="1" stop-color="#bb001f"/>
        </linearGradient>
        <clipPath id="clip-path-3">
            <path id="Tracé_298" d="M15.635,37.42a1.895,1.895,0,1,0,1.895-1.895,1.895,1.895,0,0,0-1.895,1.895" transform="translate(-15.635 -35.525)" fill="none"/>
        </clipPath>
        <linearGradient id="linear-gradient-2" x1="-1.189" y1="10.626" x2="-1.113" y2="10.626" xlink:href="#linear-gradient"/>
        <clipPath id="clip-path-4">
            <path id="Tracé_299" d="M110.245,40.577a1.746,1.746,0,1,0,1.746-1.746,1.746,1.746,0,0,0-1.746,1.746" transform="translate(-110.245 -38.831)" fill="none"/>
        </clipPath>
        <linearGradient id="linear-gradient-3" x1="-9.092" y1="11.256" x2="-9.01" y2="11.256" xlink:href="#linear-gradient"/>
    </defs>
    <g id="Groupe_50">
        <g id="Groupe_49" clip-path="url(#clip-path)">
            <path id="Tracé_274" d="M120.68,48.668l2.513,7.766c.074-.007.15-.011.225-.011a2.385,2.385,0,0,1,2.026,1.125l6.89-2.393v-5.2c0-.073-.005-.146-.007-.22L121.6,47.508a2.3,2.3,0,0,1-.919,1.16" transform="translate(-85.916 -33.822)" fill="#fff"/>
            <path id="Tracé_275" d="M124.169,35.987l10.489,2.181a6.9,6.9,0,0,0-3.374-4.688l-1.2-.678-5.962,2.937a2.268,2.268,0,0,1,.044.248" transform="translate(-88.369 -23.353)" fill="#fff"/>
            <path id="Tracé_276" d="M120.067,25.168l5.321-2.621-5.771-3.268-.534,5.2a2.3,2.3,0,0,1,.983.69" transform="translate(-84.78 -13.725)" fill="#fff"/>
            <path id="Tracé_277" d="M87.635,11.728a1.584,1.584,0,0,1-.053.4l6.692,4.27a2.288,2.288,0,0,1,1.257-.559l.579-5.64L91.028,7.325l-3.559,3.7a1.584,1.584,0,0,1,.166.7" transform="translate(-62.272 -5.215)" fill="#fff"/>
            <path id="Tracé_278" d="M73.416,27.358c-.023,0-.045,0-.068,0l-3.612,8.112A3.323,3.323,0,0,1,70.9,36.613l10-4.05a2.317,2.317,0,0,1-.037-.4,2.292,2.292,0,0,1,.171-.869l-6.668-4.254a1.585,1.585,0,0,1-.952.317" transform="translate(-49.647 -19.251)" fill="#fff"/>
            <path id="Tracé_279" d="M7.267,100.323c0-.064,0-.127.01-.19L0,97.8v6.192c0,.23.015.459.038.685l7.285-3.893a2,2,0,0,1-.055-.459" transform="translate(0 -69.626)" fill="#fff"/>
            <path id="Tracé_280" d="M27.247,16.118,40.83,11.625a1.586,1.586,0,0,1,.083-.43L36.326,7.3l-9.57,5.418L26.2,15.108a2.511,2.511,0,0,1,1.05,1.009" transform="translate(-18.65 -5.198)" fill="#fff"/>
            <path id="Tracé_281" d="M44.036,25.824l-13.57,4.488c.006.069.011.139.011.21a2.5,2.5,0,0,1-.189.952l7.02,4.053a3.307,3.307,0,0,1,3.36-1.307L44.285,26.1a1.593,1.593,0,0,1-.249-.274" transform="translate(-21.563 -18.385)" fill="#fff"/>
            <path id="Tracé_282" d="M32.859,111.786a1.982,1.982,0,0,1-.907.448l-.634,10.848,2.922,1.654,9.983-3.437a2.759,2.759,0,0,1,.237-1.606Z" transform="translate(-22.296 -79.584)" fill="#fff"/>
            <path id="Tracé_283" d="M4.142,39.424a2.489,2.489,0,0,1-.079-1.652l-1.32-.762A6.905,6.905,0,0,0,.063,42Z" transform="translate(-0.045 -26.349)" fill="#fff"/>
            <path id="Tracé_284" d="M8.393,63.372,6.263,49.1a2.488,2.488,0,0,1-1.573-.684L0,51.369V61.532l7.654,2.456a2,2,0,0,1,.739-.616" transform="translate(0 -34.466)" fill="#fff"/>
            <path id="Tracé_285" d="M135.908,80.469a2.387,2.387,0,0,1-1.043,1.974l3.323,9.069a1.386,1.386,0,0,1,1.037.572l3.042-.747a6.885,6.885,0,0,0,.166-1.494V77.926L135.891,80.2a2.409,2.409,0,0,1,.016.271" transform="translate(-96.015 -55.478)" fill="#fff"/>
            <path id="Tracé_286" d="M15.54,29.969c.038,0,.076,0,.114.006l.331-1.416-3.166,1.792.834.481a2.491,2.491,0,0,1,1.887-.864" transform="translate(-9.126 -20.332)" fill="#fff"/>
            <path id="Tracé_287" d="M57.546,149.707c-.086.008-.173.013-.262.013a2.846,2.846,0,0,1-2.479-1.449l-9.1,3.132,6.641,3.759a6.9,6.9,0,0,0,6.8,0l.015-.008Z" transform="translate(-32.541 -105.56)" fill="#fff"/>
            <path id="Tracé_288" d="M9.181,111.862a1.99,1.99,0,0,1-.776-.5L.81,115.425a6.906,6.906,0,0,0,3.27,4.234l4.5,2.546Z" transform="translate(-0.577 -79.285)" fill="#fff"/>
            <path id="Tracé_289" d="M105.848,133.09a1.4,1.4,0,0,1-.627-.516l-13.336,3c0,.04.006.08.006.12a2.847,2.847,0,0,1-1.574,2.545l1.549,5.206,7.247-4.1h0l6.65-3.765Z" transform="translate(-64.3 -94.384)" fill="#fff"/>
            <path id="Tracé_290" d="M148.584,129.155a1.391,1.391,0,0,1-.854,1.081l-.063,1.876.377-.213a6.9,6.9,0,0,0,2.966-3.34Z" transform="translate(-105.13 -91.525)" fill="#fff"/>
            <path id="Tracé_291" d="M69.011,5.17a1.582,1.582,0,0,1,1.53-.1l3.365-3.5L72.707.9a6.907,6.907,0,0,0-6.8,0l-1.156.654Z" transform="translate(-46.095 0)" fill="#fff"/>
            <path id="Tracé_292" d="M50.3,92.884l-4.883-16.41c-.034,0-.067,0-.1,0a3.294,3.294,0,0,1-1.748-.5l-5.8,7.657a1.979,1.979,0,0,1,.267,1.783L49.67,93.343a2.856,2.856,0,0,1,.634-.459" transform="translate(-26.892 -54.09)" fill="#fff"/>
            <path id="Tracé_293" d="M28.118,63.372l5.817-7.682a3.313,3.313,0,0,1-.614-3.111l-7.146-4.126a2.492,2.492,0,0,1-.818.513L27.481,63.21a1.98,1.98,0,0,1,.637.163" transform="translate(-18.052 -34.496)" fill="#fff"/>
            <path id="Tracé_294" d="M100.084,62.553a2.387,2.387,0,0,1,1.165-2.05l-2.505-7.742a2.3,2.3,0,0,1-.253.015c-.074,0-.147,0-.219-.011L91.262,75.946l9.429-11.805a2.378,2.378,0,0,1-.607-1.588" transform="translate(-64.972 -37.562)" fill="#fff"/>
            <path id="Tracé_295" d="M107.038,104.366a1.387,1.387,0,0,1,.461-.79l-3.3-9.017a2.408,2.408,0,0,1-.367.031,2.381,2.381,0,0,1-.928-.187l-9.738,12.191a2.851,2.851,0,0,1,.513.78Z" transform="translate(-66.325 -67.209)" fill="#fff"/>
            <path id="Tracé_296" d="M73.1,73.755a2.857,2.857,0,0,1,.412.033l7.146-23.634a2.307,2.307,0,0,1-.631-.582L70.015,53.629a3.3,3.3,0,0,1-2.086,3.846l4.85,16.3a2.874,2.874,0,0,1,.325-.02" transform="translate(-48.361 -35.292)" fill="#fff"/>
        </g>
    </g>
    <g id="Groupe_52" transform="translate(22.491 39.048)">
        <g id="Groupe_51" clip-path="url(#clip-path-2)">
            <rect id="Rectangle_545" width="4.522" height="4.522" transform="translate(0 0)" fill="url(#linear-gradient)"/>
        </g>
    </g>
    <g id="Groupe_54" transform="translate(4.504 10.234)">
        <g id="Groupe_53" clip-path="url(#clip-path-3)">
            <rect id="Rectangle_546" width="3.79" height="3.79" transform="translate(0 0)" fill="url(#linear-gradient-2)"/>
        </g>
    </g>
    <g id="Groupe_56" transform="translate(31.758 11.186)">
        <g id="Groupe_55" clip-path="url(#clip-path-4)">
            <rect id="Rectangle_547" width="3.493" height="3.493" transform="translate(0 0)" fill="url(#linear-gradient-3)"/>
        </g>
    </g>
</svg>
